<?xml version="1.0" standalone="no"?>
<!DOCTYPE svg PUBLIC "-//W3C//DTD SVG 20010904//EN"
 "http://www.w3.org/TR/2001/REC-SVG-20010904/DTD/svg10.dtd">
<svg version="1.0" xmlns="http://www.w3.org/2000/svg"
 width="1044.000000pt" height="1044.000000pt" viewBox="0 0 1044.000000 1044.000000"
 preserveAspectRatio="xMidYMid meet">

<g transform="translate(0.000000,1044.000000) scale(0.100000,-0.100000)"
fill="#000000" stroke="none">
<path d="M6158 8105 c-4 -4 -3 -17 1 -29 5 -11 7 -47 6 -79 -1 -32 1 -59 4
-61 3 -2 7 24 8 57 3 64 -7 123 -19 112z"/>
<path d="M5832 7895 c0 -16 2 -22 5 -12 2 9 2 23 0 30 -3 6 -5 -1 -5 -18z"/>
<path d="M6394 7867 c-7 -22 -59 -97 -91 -131 -17 -18 -17 -18 7 -11 30 10 40
10 61 1 13 -6 18 1 23 32 3 22 12 45 20 51 22 19 25 57 5 69 -15 10 -19 8 -25
-11z"/>
<path d="M6070 7839 c-7 -11 -10 -23 -7 -25 2 -2 9 7 15 21 14 30 7 33 -8 4z"/>
<path d="M6041 7764 c-6 -21 -9 -40 -6 -42 2 -2 8 13 14 34 6 21 9 40 6 42 -2
2 -8 -13 -14 -34z"/>
<path d="M5541 7770 c0 -8 4 -24 9 -35 5 -13 9 -14 9 -5 0 8 -4 24 -9 35 -5
13 -9 14 -9 5z"/>
<path d="M5812 7760 c0 -14 2 -19 5 -12 2 6 2 18 0 25 -3 6 -5 1 -5 -13z"/>
<path d="M3045 7731 c-3 -5 -1 -12 5 -16 5 -3 10 1 10 9 0 18 -6 21 -15 7z"/>
<path d="M5801 7714 c0 -11 3 -14 6 -6 3 7 2 16 -1 19 -3 4 -6 -2 -5 -13z"/>
<path d="M2727 7700 c3 -11 0 -20 -6 -20 -6 0 -11 -5 -11 -11 0 -5 5 -7 10 -4
6 3 10 0 10 -7 0 -8 6 -23 14 -34 15 -19 15 -19 30 1 9 11 13 26 11 33 -3 7
-1 11 3 8 4 -2 13 -2 19 2 7 4 2 14 -13 25 -13 10 -24 13 -24 7 0 -5 -7 -10
-15 -10 -8 0 -15 7 -15 15 0 8 -4 15 -9 15 -5 0 -7 -9 -4 -20z"/>
<path d="M5550 7691 c0 -6 4 -13 10 -16 6 -3 7 1 4 9 -7 18 -14 21 -14 7z"/>
<path d="M6242 7658 c-13 -15 -19 -28 -14 -28 13 0 45 37 41 48 -2 5 -14 -4
-27 -20z"/>
<path d="M5557 7620 c8 -60 23 -88 18 -33 -2 23 -8 50 -14 60 -7 13 -8 6 -4
-27z"/>
<path d="M6190 7595 c-13 -14 -19 -25 -13 -25 6 0 18 11 27 25 9 14 15 25 13
25 -2 0 -14 -11 -27 -25z"/>
<path d="M6374 7532 c-33 -31 -63 -68 -66 -82 -4 -14 -9 -35 -12 -47 -7 -33
11 -28 29 7 9 17 20 30 25 30 6 0 10 5 10 11 0 5 -5 7 -12 3 -7 -4 -8 -3 -4 5
4 6 12 9 17 5 14 -8 44 36 41 59 -2 9 1 17 7 17 5 0 13 9 16 20 3 11 13 20 20
20 8 0 13 -6 11 -12 -11 -35 -15 -78 -7 -73 5 3 11 0 13 -6 2 -7 10 7 17 29
30 90 -17 96 -105 14z"/>
<path d="M2370 7553 c0 -16 15 -60 33 -100 l33 -72 12 34 c7 18 19 36 28 39 8
3 12 2 9 -4 -3 -6 1 -10 9 -10 10 0 13 6 10 15 -4 8 1 17 9 21 23 9 -83 104
-116 104 -23 0 -27 -4 -27 -27z"/>
<path d="M5560 7520 c0 -11 2 -20 4 -20 2 0 6 9 9 20 3 11 1 20 -4 20 -5 0 -9
-9 -9 -20z"/>
<path d="M5968 7398 c-11 -9 -17 -22 -13 -27 4 -7 0 -8 -11 -4 -13 5 -16 3
-11 -10 4 -10 2 -14 -6 -11 -16 6 -60 -43 -52 -56 4 -6 -1 -7 -11 -3 -14 5
-16 3 -11 -11 4 -9 3 -15 -2 -12 -5 3 -20 -5 -32 -19 -23 -24 -59 -34 -59 -17
0 5 18 43 40 85 45 86 48 95 20 67 -11 -11 -26 -17 -35 -14 -8 4 -15 1 -15 -4
0 -6 -11 -23 -26 -37 -14 -14 -22 -30 -18 -37 5 -7 3 -8 -6 -3 -10 6 -12 4 -7
-8 3 -9 1 -19 -5 -23 -7 -4 -8 -3 -4 4 4 7 2 12 -3 12 -6 0 -11 -4 -11 -10 0
-5 -9 -19 -21 -31 -11 -11 -18 -26 -16 -33 3 -7 -5 -13 -19 -14 -28 -2 -31 15
-9 57 8 16 12 31 9 34 -6 6 25 58 40 69 6 4 7 10 3 14 -4 4 -14 -2 -23 -14 -8
-12 -20 -20 -25 -17 -5 4 -9 0 -9 -7 0 -19 -23 -68 -32 -68 -4 0 -16 -19 -28
-42 -11 -24 -32 -59 -46 -78 -15 -21 -24 -44 -21 -57 3 -15 0 -20 -10 -16 -7
3 -13 0 -13 -6 0 -6 -7 -11 -16 -11 -11 0 -14 6 -9 23 26 86 40 125 54 147
l15 25 -23 -20 c-19 -16 -24 -17 -32 -5 -5 8 -8 27 -6 42 2 18 -2 28 -13 31
-14 4 -17 -4 -19 -42 -1 -43 -10 -99 -31 -211 -12 -59 -32 -131 -58 -204 -12
-32 -19 -62 -17 -66 8 -13 -6 -40 -21 -40 -19 0 -53 -74 -43 -93 13 -22 -1
-49 -22 -44 -20 5 -46 -44 -33 -64 4 -7 3 -10 -2 -6 -6 3 -16 -3 -22 -14 -12
-18 -11 -19 7 -10 16 9 18 8 14 -9 -3 -11 -10 -20 -15 -20 -14 0 -40 -28 -35
-37 3 -5 -7 -9 -21 -10 -31 -1 -65 -39 -59 -64 3 -13 0 -16 -11 -12 -12 5 -14
2 -8 -12 4 -11 4 -16 0 -12 -6 6 -35 -26 -40 -43 -10 -33 -18 -50 -24 -50 -4
0 -13 -15 -20 -32 -8 -18 -19 -40 -27 -49 -8 -9 -13 -20 -12 -25 4 -13 -27
-80 -51 -115 -12 -16 -18 -34 -14 -40 5 -8 3 -9 -6 -4 -10 6 -12 4 -7 -8 4
-11 2 -14 -9 -10 -7 3 -14 1 -14 -4 0 -5 -14 -30 -31 -56 -17 -26 -28 -51 -24
-57 3 -5 0 -7 -9 -4 -9 3 -17 -3 -21 -18 -4 -13 -16 -33 -27 -45 -12 -13 -17
-27 -12 -35 4 -7 4 -10 -1 -6 -8 7 -35 -15 -35 -29 0 -4 -12 -19 -26 -32 -17
-16 -24 -32 -21 -47 2 -15 0 -21 -9 -17 -18 7 -54 -15 -54 -32 0 -8 5 -15 10
-15 17 0 11 -29 -8 -41 -14 -9 -18 -22 -15 -59 3 -49 -11 -73 -39 -69 -26 3
-39 -1 -33 -11 9 -15 -37 -30 -52 -18 -12 10 -17 4 -14 -14 0 -4 -6 -5 -14 -2
-8 4 -15 1 -15 -5 0 -6 12 -11 26 -11 39 0 24 -22 -26 -38 -25 -9 -51 -21 -58
-29 -8 -8 -23 -11 -35 -7 -15 5 -19 3 -14 -9 4 -10 0 -13 -11 -10 -17 4 -33
-6 -95 -59 l-32 -28 85 32 c81 31 92 33 225 33 102 0 160 -5 215 -18 99 -24
320 -34 402 -17 35 7 74 14 88 16 14 3 39 7 55 11 17 3 39 7 50 9 11 1 49 7
85 14 39 8 144 12 260 12 107 -1 218 3 245 7 41 7 39 17 -2 12 -18 -3 -16 14
3 30 9 7 18 9 22 3 4 -5 16 -10 27 -12 51 -7 87 -7 91 0 3 5 13 4 22 -1 9 -5
33 -7 52 -6 19 1 38 -3 42 -9 4 -6 11 0 17 15 9 25 41 48 41 30 0 -5 12 -7 26
-5 41 4 56 -6 50 -32 -7 -25 -6 -25 141 -39 34 -3 92 -14 130 -24 114 -31 133
-33 133 -14 0 9 -3 13 -7 10 -3 -4 -15 1 -25 10 -16 14 -22 15 -40 4 -11 -7
-17 -8 -14 -2 4 6 -7 17 -24 26 -16 8 -30 13 -30 10 0 -3 -13 1 -29 9 -16 9
-31 13 -34 10 -3 -3 -14 -1 -24 4 -16 9 -80 21 -143 27 -25 2 -42 7 -88 26
-30 12 -38 11 -54 -4 -17 -16 -71 -40 -64 -28 3 5 -5 9 -17 9 -13 0 -56 6 -97
13 -41 7 -79 13 -85 14 -13 0 -27 23 -21 34 3 5 27 4 53 -1 27 -5 57 -11 68
-13 11 -1 20 -4 20 -5 0 -1 9 -4 20 -5 11 -1 35 -6 54 -10 23 -5 31 -4 27 4
-4 5 -23 13 -44 17 -20 4 -46 13 -58 21 -11 7 -23 10 -26 7 -4 -3 -17 0 -30 7
-12 7 -31 13 -41 14 -11 1 -23 8 -27 16 -5 7 -12 10 -16 7 -4 -4 -15 -3 -25 2
-29 16 -49 2 -46 -34 2 -30 17 -57 27 -51 3 2 5 -7 5 -20 0 -12 -5 -21 -11
-18 -6 2 -23 -1 -37 -6 -15 -6 -27 -7 -27 -2 0 4 -12 7 -27 5 -27 -3 -53 10
-53 27 0 5 9 9 20 9 22 0 62 39 54 52 -3 5 -17 2 -30 -7 -23 -15 -23 -15 -14
11 6 14 10 26 10 28 0 1 -15 3 -32 4 -78 3 -88 5 -88 19 0 11 -7 13 -25 9 -31
-8 -115 12 -121 29 -3 7 -19 11 -40 9 -28 -2 -34 1 -34 17 0 19 9 23 42 20 21
-2 29 11 17 29 -7 13 -9 12 -9 -2 0 -24 -9 -23 -36 7 -22 24 -52 35 -39 15 3
-5 0 -10 -8 -10 -24 0 -56 35 -71 78 l-15 40 27 -5 c15 -3 35 -5 44 -5 10 0
20 -3 23 -9 4 -5 16 -9 29 -9 12 0 26 -4 31 -9 6 -4 33 -14 60 -21 48 -12 104
-27 135 -38 38 -12 86 -15 190 -11 8 0 20 -1 25 -2 24 -7 75 14 80 32 4 10 10
19 15 19 17 0 19 31 4 66 -14 32 -13 38 1 60 9 14 21 22 27 18 8 -5 9 -1 5 10
-4 10 -7 22 -7 27 0 5 -5 9 -11 9 -5 0 -7 -5 -3 -12 4 -7 3 -8 -4 -4 -7 4 -8
15 -2 30 7 21 3 25 -48 50 -85 41 -87 42 -87 57 0 8 8 13 20 11 11 -1 49 -4
85 -7 36 -3 76 -8 90 -11 45 -10 53 -9 58 5 3 9 0 12 -9 9 -9 -4 -14 2 -14 17
0 13 3 21 7 18 5 -2 18 3 30 11 20 15 18 21 -6 17 -5 -1 -12 3 -16 9 -4 6 -17
12 -28 13 -12 1 -22 7 -22 14 0 12 24 21 60 22 72 4 96 7 102 15 9 13 -2 36
-18 36 -17 0 -18 12 -2 28 9 9 8 12 -5 12 -9 0 -17 5 -17 11 0 6 -8 3 -17 -7
-17 -17 -18 -17 -21 0 -3 14 -11 17 -32 14 -22 -3 -30 0 -34 15 -2 10 -2 17 1
14 2 -3 26 1 51 8 26 8 68 12 94 11 31 -3 46 0 41 7 -3 6 -1 7 5 3 7 -4 12
-14 12 -22 0 -8 4 -14 9 -14 11 0 24 31 16 38 -3 3 -5 2 -5 -2 0 -4 -10 0 -22
8 -14 10 -27 12 -37 6 -13 -7 -16 -4 -16 16 1 13 5 27 10 31 4 5 5 3 2 -3 -8
-14 74 -9 102 6 11 5 29 10 40 10 11 0 24 6 28 13 4 8 16 18 26 24 16 8 14 10
-13 11 -17 0 -37 5 -44 11 -7 6 -16 7 -21 3 -4 -4 -6 2 -4 13 3 15 13 20 44
21 22 1 46 -3 53 -9 10 -7 23 0 51 29 31 32 36 44 30 62 -5 12 -20 27 -35 32
-38 15 -41 5 -4 -10 33 -14 38 -31 14 -54 -16 -17 -36 -21 -47 -9 -4 3 -19 8
-34 9 -15 2 -29 8 -31 13 -2 6 -12 7 -27 1 -15 -6 -27 -6 -30 0 -3 5 -26 8
-50 5 -44 -4 -55 5 -37 30 8 13 92 39 99 31 3 -2 16 0 30 5 18 7 30 6 42 -3
14 -12 14 -11 3 4 -8 9 -10 23 -6 29 5 9 2 10 -12 5 -10 -4 -53 -10 -94 -12
-41 -3 -84 -6 -94 -7 -10 -1 -21 3 -23 9 -6 18 116 45 195 44 23 0 42 4 42 10
0 5 -6 7 -14 4 -8 -3 -16 3 -19 15 -3 13 -1 19 5 15 6 -4 14 -1 18 5 4 7 26
14 50 16 23 2 45 6 48 9 3 3 10 2 16 -3 6 -4 18 -10 27 -13 13 -5 14 -1 5 27
-7 21 -14 31 -21 25 -5 -4 -21 -8 -35 -9 -56 -1 -96 -8 -119 -20 -14 -8 -21
-9 -17 -2 4 6 0 11 -8 11 -22 0 -20 8 12 38 49 48 131 69 160 40 8 -8 12 -8
12 -1 0 6 -19 17 -42 25 -36 12 -47 12 -70 1 -15 -8 -44 -16 -65 -18 -21 -3
-59 -8 -85 -11 -58 -8 -65 9 -13 30 55 23 41 28 -17 6 -29 -11 -54 -20 -56
-20 -2 0 0 -5 4 -11 5 -9 -1 -10 -19 -5 -16 4 -46 -1 -79 -14 -28 -11 -54 -18
-56 -15 -8 8 10 26 35 36 14 5 23 12 20 15 -3 4 -21 -3 -39 -14 -18 -10 -63
-30 -101 -43 -39 -14 -65 -29 -63 -35 3 -7 -3 -10 -15 -7 -22 6 -23 4 -9 -32
6 -17 7 -24 0 -20 -12 7 -120 -25 -120 -36 0 -8 -73 -35 -78 -28 -2 2 -8 -4
-13 -13 -13 -23 -31 -23 -60 2 -21 17 -22 21 -9 30 8 6 25 8 36 5 20 -4 21 -1
17 41 -3 38 -1 45 12 41 18 -8 73 10 103 34 13 10 37 21 53 24 21 5 29 11 25
21 -3 8 -2 13 3 10 11 -7 134 34 143 48 4 6 10 7 14 4 4 -4 18 2 32 12 13 11
33 20 42 20 10 0 31 15 47 33 31 34 54 51 90 66 11 6 24 15 28 20 3 6 15 11
27 11 14 0 18 5 14 16 -3 8 -2 12 4 9 5 -3 21 5 34 19 13 14 28 26 33 26 5 0
22 14 39 31 23 25 24 29 7 18 -13 -8 -23 -17 -23 -20 0 -4 -12 -12 -27 -18
-16 -7 -37 -17 -48 -24 -11 -7 -38 -24 -60 -37 -23 -14 -50 -31 -60 -38 -11
-7 -35 -19 -53 -28 -18 -8 -30 -19 -27 -25 4 -5 3 -9 -2 -7 -15 4 -73 -14 -73
-22 0 -5 -23 -16 -50 -25 -28 -9 -48 -21 -44 -26 3 -5 -4 -9 -14 -9 -11 0 -22
-6 -25 -14 -3 -7 -18 -17 -33 -20 -15 -4 -41 -17 -58 -29 -44 -32 -114 -65
-124 -58 -12 9 -24 43 -12 36 6 -4 24 5 41 19 17 14 36 26 42 26 8 0 8 3 -1 9
-9 5 -1 10 27 15 32 5 39 10 38 27 -1 16 -6 19 -25 14 -13 -3 -29 -10 -35 -16
-7 -5 -28 -23 -47 -39 -19 -17 -43 -28 -52 -26 -9 2 -19 -1 -21 -7 -4 -14 -27
1 -27 19 0 8 6 14 14 14 7 0 25 11 40 25 15 14 31 25 37 25 5 0 9 3 9 8 0 4
14 16 30 27 27 18 45 45 20 30 -16 -10 -11 1 7 16 11 10 14 10 9 2 -4 -9 -1
-13 9 -13 10 0 15 6 12 13 -3 8 4 14 20 15 13 1 31 9 39 17 9 8 20 15 26 15 5
0 8 7 5 14 -4 10 -1 13 7 10 19 -7 58 29 59 56 2 20 8 25 30 26 31 1 110 70
100 87 -3 6 -1 7 4 4 6 -4 29 13 52 38 23 25 43 45 46 45 9 0 55 52 51 58 -2
4 7 8 20 8 24 2 64 37 64 56 0 5 7 16 15 25 9 8 13 18 10 21 -3 3 -12 -3 -21
-14 -14 -17 -15 -17 -10 -1 8 24 -8 14 -73 -45 -32 -29 -49 -52 -45 -59 4 -8
3 -9 -5 -5 -6 4 -18 0 -27 -8 -8 -9 -12 -16 -7 -16 4 -1 -7 -7 -25 -15 -18 -8
-35 -21 -38 -30 -3 -8 -12 -15 -19 -15 -7 0 -23 -11 -36 -25 -13 -13 -30 -25
-38 -25 -7 0 -11 -6 -8 -14 4 -10 1 -13 -8 -10 -8 3 -16 -3 -20 -16 -4 -13
-18 -23 -37 -27 -16 -3 -32 -12 -35 -19 -3 -8 -13 -14 -23 -14 -10 0 -24 -16
-36 -42 -20 -46 -37 -68 -52 -68 -5 0 -33 -27 -62 -60 -65 -72 -140 -106 -109
-48 6 11 8 22 5 25 -3 3 -9 -2 -13 -13 -10 -28 -35 -54 -65 -70 -27 -14 -28
-14 -18 11 6 16 6 25 0 25 -6 0 -10 -4 -10 -10 0 -13 -27 -13 -35 0 -4 6 -1
17 5 25 7 8 10 21 7 29 -4 11 -1 13 10 9 13 -5 15 -2 10 11 -4 11 -3 15 4 10
6 -4 15 0 20 7 8 12 12 11 23 -4 11 -15 16 -16 25 -5 52 59 99 106 114 111 24
9 22 -14 -4 -47 -12 -15 -19 -29 -16 -32 2 -3 14 6 25 20 11 15 23 26 26 26 3
0 27 20 53 45 25 25 53 45 60 45 17 0 17 17 1 24 -7 3 -4 4 7 3 12 -1 19 3 18
10 -2 7 0 12 5 10 13 -4 53 43 46 55 -4 6 -3 8 4 4 9 -6 92 69 92 84 0 3 16
21 35 40 19 19 35 40 35 47 0 6 3 13 8 15 7 3 52 64 52 70 0 11 -45 1 -62 -14z
m202 -42 c0 -2 -8 -10 -17 -17 -16 -13 -17 -12 -4 4 13 16 21 21 21 13z m-757
-658 c-5 -31 -3 -39 7 -33 10 6 11 -9 7 -69 -6 -72 -5 -77 13 -71 10 3 21 2
24 -4 11 -17 120 -2 211 29 49 17 94 29 100 27 5 -2 20 0 32 4 25 9 39 -4 20
-18 -13 -11 -210 -74 -242 -79 -11 -1 -41 -6 -67 -10 -32 -4 -48 -3 -48 4 0 6
-11 10 -23 8 -28 -3 -97 -44 -97 -57 0 -5 -7 -9 -15 -9 -14 0 -14 -3 0 -24
l16 -24 50 19 c27 11 60 19 72 19 20 0 121 31 177 54 9 4 20 -2 27 -14 10 -15
10 -18 0 -15 -6 2 -55 -11 -107 -30 -93 -33 -108 -49 -20 -21 25 8 65 19 90
24 25 6 53 14 63 17 11 5 17 2 17 -8 0 -11 -32 -26 -105 -49 -102 -32 -143
-58 -67 -43 20 4 57 9 82 10 25 2 57 6 73 10 22 6 26 4 21 -8 -6 -16 -59 -38
-104 -43 -79 -9 -110 -14 -135 -24 -29 -11 -65 -5 -65 10 0 6 11 12 25 16 14
3 22 10 19 15 -3 5 -12 6 -21 0 -19 -10 -53 -3 -53 11 0 5 9 12 20 15 11 3 17
9 15 14 -3 4 -20 2 -38 -6 -38 -16 -96 -17 -114 -3 -9 7 -11 27 -7 62 4 28 6
59 6 69 -1 9 6 17 14 17 19 0 19 67 -1 86 -13 13 -13 18 1 40 9 13 20 24 24
24 14 0 47 35 64 68 24 47 46 43 39 -10z m387 -199 c0 -10 -37 -49 -46 -49 -7
0 11 46 20 52 16 11 26 10 26 -3z m300 -34 c0 -8 -7 -15 -15 -15 -16 0 -20 12
-8 23 11 12 23 8 23 -8z m-320 -45 c0 -5 -9 -14 -19 -19 -16 -9 -18 -8 -14 9
5 20 33 29 33 10z m-460 -129 c-5 -11 -15 -21 -22 -23 -9 -3 -8 -9 4 -22 19
-18 73 -12 65 8 -3 6 8 12 24 13 16 1 29 -2 29 -8 0 -6 25 -7 68 -4 153 14
161 14 156 0 -6 -14 -59 -37 -67 -28 -9 8 -87 -20 -81 -29 3 -5 28 -7 55 -4
63 5 67 -15 7 -34 -85 -26 -131 -19 -121 19 4 16 0 18 -34 14 -21 -2 -46 -4
-55 -4 -14 0 -15 -5 -8 -25 6 -14 6 -23 1 -20 -13 8 -72 -5 -66 -14 3 -4 19
-7 37 -5 18 1 36 -1 39 -6 5 -8 54 -12 109 -9 8 1 33 -1 55 -3 22 -3 48 -5 58
-6 26 -2 20 -20 -10 -32 -49 -20 -203 -30 -261 -18 -28 6 -31 5 -21 -7 6 -8
19 -12 29 -9 9 3 27 -4 40 -15 17 -14 27 -17 41 -10 12 7 20 7 24 0 3 -5 17
-10 31 -10 13 0 24 -5 24 -10 0 -15 -47 -31 -67 -23 -17 6 -17 5 0 -14 16 -18
16 -22 2 -33 -9 -7 -13 -21 -9 -34 4 -19 -1 -24 -38 -36 -60 -20 -129 -20
-126 0 2 9 15 16 33 17 17 1 48 8 70 16 l40 15 -47 12 c-27 7 -48 18 -48 26 0
15 35 28 50 19 5 -3 10 -2 10 3 0 9 -12 14 -70 29 -8 2 -26 6 -38 8 -13 2 -26
6 -29 9 -11 11 7 37 32 46 30 11 34 24 5 15 -21 -7 -21 -6 -24 48 -1 16 -6 31
-12 35 -5 4 -15 19 -21 34 -14 32 -7 39 52 58 22 7 34 15 28 17 -22 8 -14 29
15 40 44 17 54 16 42 -6z m-190 -67 c0 -22 -8 -28 -27 -21 -5 1 -8 14 -8 28
-1 20 3 25 17 21 11 -2 18 -14 18 -28z m610 -19 c0 -13 -22 -25 -46 -25 -8 0
-14 9 -14 19 0 15 7 19 30 19 17 -1 30 -7 30 -13z m-595 -25 c9 -14 -13 -50
-30 -50 -18 0 -20 26 -2 45 14 17 24 18 32 5z m-78 -38 c10 -6 10 -16 2 -43
-17 -56 -23 -92 -24 -136 0 -22 -3 -39 -6 -37 -4 2 -10 -3 -13 -12 -4 -11 -2
-15 8 -11 9 4 12 0 9 -13 -3 -10 -15 -20 -28 -22 -19 -4 -25 1 -35 34 -9 31
-8 43 1 54 6 8 9 17 5 21 -3 3 1 17 9 30 9 13 13 28 10 33 -3 5 -1 11 5 15 5
3 10 19 10 35 0 53 16 71 47 52z m380 -18 c-3 -3 -12 -4 -19 -1 -8 3 -5 6 6 6
11 1 17 -2 13 -5z m225 -29 c10 -13 -10 -24 -33 -18 -28 8 -24 35 4 31 12 -2
25 -7 29 -13z m-552 -165 c0 -12 -28 -25 -36 -17 -9 9 6 27 22 27 8 0 14 -5
14 -10z m-230 -10 c0 -5 -9 -14 -20 -20 -15 -8 -20 -8 -20 3 0 8 3 17 7 20 10
10 33 8 33 -3z m-69 -33 c-10 -9 -11 -8 -5 6 3 10 9 15 12 12 3 -3 0 -11 -7
-18z m9 -57 c0 -6 9 -6 26 1 15 5 29 8 31 5 9 -8 -13 -70 -27 -74 -9 -3 -11 1
-7 12 4 10 1 16 -8 16 -8 0 -15 5 -15 10 0 6 -7 10 -15 10 -16 0 -20 12 -8 23
10 10 23 8 23 -3z m624 -5 c2 -7 -9 -16 -27 -22 -29 -9 -32 -8 -32 11 0 16 7
21 27 22 15 1 29 -4 32 -11z m384 -52 c-15 -18 -26 -16 -33 7 -10 30 3 42 25
23 14 -13 17 -20 8 -30z m-1 -50 c7 -9 13 -21 13 -26 0 -12 -54 1 -58 14 -2 5
-10 9 -18 9 -8 0 -11 6 -8 15 8 19 54 12 71 -12z m-996 5 c0 -7 2 -25 3 -40 1
-14 -2 -24 -6 -22 -4 3 -28 -2 -53 -11 -57 -19 -55 -19 -55 5 0 11 5 20 11 20
5 0 7 5 3 11 -3 6 0 15 7 20 23 14 32 10 26 -11 -8 -32 10 -23 22 10 10 29 40
42 42 18z m307 -35 c-6 -7 -14 -13 -19 -13 -13 0 -11 24 3 38 16 16 31 -7 16
-25z m-367 -69 c34 3 35 2 36 -33 0 -20 2 -42 4 -49 2 -8 -4 -19 -13 -25 -13
-9 -21 -8 -35 5 -10 8 -23 14 -29 11 -16 -6 -34 40 -23 60 8 13 6 15 -6 11 -9
-4 -15 -1 -15 9 0 18 21 28 35 16 6 -4 26 -6 46 -5z m279 -60 c0 -18 -24 -44
-40 -44 -25 0 -27 37 -2 43 26 7 42 8 42 1z m184 -29 c-4 -8 -10 -15 -14 -15
-4 0 -10 7 -14 15 -4 10 1 15 14 15 13 0 18 -5 14 -15z m96 -4 c0 -6 -5 -13
-10 -16 -6 -4 -9 -14 -8 -23 2 -11 -4 -17 -17 -17 -12 0 -19 6 -17 14 2 9 -4
12 -18 8 -15 -4 -20 0 -20 14 0 12 7 19 20 19 11 0 20 -4 20 -10 0 -5 5 -10
10 -10 6 0 10 7 10 15 0 8 7 15 15 15 8 0 15 -4 15 -9z m-574 -23 c4 -7 3 -8
-4 -4 -7 4 -12 1 -12 -8 0 -9 -7 -16 -15 -16 -21 0 -19 28 3 33 9 3 18 5 19 6
1 0 5 -4 9 -11z m-116 -46 c0 -4 -5 -13 -11 -19 -9 -9 -7 -10 10 -6 14 4 21 1
21 -10 0 -17 -48 -33 -61 -20 -14 15 2 63 22 63 11 0 19 -4 19 -8z m757 -18
c7 -19 -13 -34 -44 -34 -25 0 -37 15 -29 35 8 21 65 19 73 -1z m-817 -9 c0 -8
-7 -15 -15 -15 -8 0 -15 7 -15 15 0 8 7 15 15 15 8 0 15 -7 15 -15z m898 -14
c25 -2 6 -24 -32 -37 -31 -11 -38 -11 -43 1 -10 27 4 44 34 40 15 -2 34 -4 41
-4z m379 -127 c-3 -3 -12 -4 -19 -1 -8 3 -5 6 6 6 11 1 17 -2 13 -5z"/>
<path d="M6324 7307 c-34 -35 -117 -107 -124 -107 -3 0 -12 -9 -20 -20 -8 -11
-20 -20 -26 -20 -7 0 -14 -7 -18 -15 -3 -8 -10 -15 -16 -15 -6 0 -23 -11 -38
-25 -15 -14 -31 -25 -37 -25 -5 0 -21 -12 -34 -25 -13 -14 -29 -25 -36 -25 -7
0 -15 -7 -18 -14 -3 -8 -22 -18 -41 -21 -22 -5 -38 -14 -41 -25 -3 -11 -21
-24 -40 -30 -19 -6 -35 -16 -35 -21 0 -5 -6 -9 -13 -9 -20 0 -60 -37 -53 -49
4 -5 1 -13 -5 -17 -8 -4 -9 -3 -5 4 4 7 3 12 -3 12 -5 0 -9 -9 -8 -20 1 -13 6
-19 15 -15 7 3 18 5 24 5 6 0 8 6 5 13 -3 7 5 13 20 13 14 1 37 13 51 27 15
13 44 31 65 38 20 7 37 17 37 21 0 4 5 8 11 8 19 0 39 28 33 47 -4 13 -3 15 4
4 7 -10 11 -10 17 -1 4 6 26 25 48 41 23 17 61 48 84 70 23 21 45 39 48 39 4
0 23 17 44 38 51 51 131 116 148 120 16 4 7 22 -10 21 -7 0 -22 -10 -33 -22z"/>
<path d="M6435 7323 c-20 -5 -35 -20 -35 -37 0 -5 8 -2 18 7 25 23 37 21 50
-5 8 -17 11 -19 11 -6 1 21 -9 48 -18 47 -3 -1 -15 -4 -26 -6z"/>
<path d="M6500 7156 c0 -2 7 -6 15 -10 8 -3 15 -1 15 4 0 6 -7 10 -15 10 -8 0
-15 -2 -15 -4z"/>
<path d="M6527 6954 c-4 -4 -7 -19 -6 -33 l0 -26 10 24 c10 26 8 47 -4 35z"/>
<path d="M6236 6821 c-12 -5 -15 -10 -9 -14 6 -4 16 0 23 8 14 17 13 17 -14 6z"/>
<path d="M6110 6125 c0 -3 6 -13 14 -20 12 -12 16 -12 26 0 8 9 8 15 2 15 -6
0 -17 3 -26 6 -9 3 -16 3 -16 -1z"/>
<path d="M6065 5970 c3 -5 8 -10 11 -10 2 0 4 5 4 10 0 6 -5 10 -11 10 -5 0
-7 -4 -4 -10z"/>
<path d="M6020 5956 c0 -10 8 -16 22 -16 12 0 19 1 17 3 -2 1 -12 9 -21 16
-15 12 -18 11 -18 -3z"/>
<path d="M3750 5461 c0 -5 -9 -13 -20 -16 -11 -4 -18 -11 -14 -16 3 -5 10 -6
16 -3 7 5 8 2 4 -5 -5 -7 -10 -10 -13 -7 -3 3 -12 -2 -20 -10 -24 -24 -11 -25
48 -4 64 24 83 25 99 5 15 -18 35 -20 24 -3 -4 7 -3 8 4 4 6 -4 9 -12 6 -19
-3 -8 -1 -24 4 -36 6 -18 10 -20 19 -9 16 20 -20 96 -52 108 -38 15 -105 21
-105 11z"/>
<path d="M3938 5278 c-13 -16 -14 -26 -6 -47 6 -14 10 -41 9 -60 0 -28 2 -31
14 -21 10 8 12 17 5 30 -6 11 -5 30 2 52 6 21 7 42 2 51 -8 14 -11 13 -26 -5z"/>
<path d="M3996 5249 c-3 -17 -1 -40 5 -51 7 -13 7 -18 1 -14 -6 4 -10 -2 -9
-14 1 -12 6 -19 14 -16 8 4 13 -3 13 -19 0 -29 -24 -34 -39 -7 -6 9 -11 11
-11 5 0 -7 -7 -13 -15 -13 -8 0 -15 -9 -15 -19 0 -17 4 -18 42 -9 24 5 50 16
59 24 8 8 20 14 26 14 14 0 47 32 51 48 4 19 -85 102 -109 102 -4 0 -9 -14
-13 -31z"/>
<path d="M6129 5259 c-8 -4 -7 -9 2 -15 22 -13 59 -11 72 5 10 12 9 14 -5 8
-10 -3 -18 -3 -18 1 0 9 -37 10 -51 1z"/>
<path d="M6650 5249 c-11 -6 -8 -9 12 -9 15 0 39 -5 55 -12 15 -6 35 -10 45
-9 9 1 34 -6 55 -15 21 -9 45 -18 53 -19 8 -2 30 -8 49 -14 26 -8 38 -8 50 2
9 8 12 8 8 1 -4 -8 6 -14 31 -19 20 -4 41 -10 47 -13 5 -3 25 -7 45 -9 19 -2
42 -6 50 -10 8 -3 22 -7 30 -9 34 -6 77 -16 111 -25 20 -5 51 -11 68 -13 18
-2 35 -6 38 -10 3 -3 13 0 21 7 10 8 13 8 9 0 -7 -12 47 -36 57 -26 3 4 6 1 6
-6 0 -7 4 -10 9 -7 4 3 23 1 41 -4 18 -5 74 -16 124 -25 94 -16 233 -47 320
-71 37 -10 52 -11 57 -3 4 6 11 9 17 5 6 -3 13 -2 17 4 3 5 -1 11 -9 11 -24 2
-29 4 -53 17 -13 7 -23 11 -23 8 0 -3 -24 3 -52 13 -29 10 -71 21 -93 25 -22
4 -50 14 -63 22 -12 8 -26 13 -31 10 -4 -3 -17 1 -27 9 -10 8 -26 15 -35 15
-9 0 -19 10 -22 22 -5 18 -8 19 -21 8 -15 -12 -21 -7 -17 14 1 5 -5 4 -13 -4
-13 -10 -19 -10 -32 1 -9 7 -33 14 -54 15 -21 1 -53 5 -72 9 -25 5 -30 4 -22
-4 6 -7 23 -13 38 -15 14 -1 29 -6 33 -9 3 -4 15 -7 25 -7 10 0 18 -4 18 -8 0
-5 10 -8 23 -7 28 2 67 -15 67 -29 0 -6 4 -6 8 2 7 9 15 10 35 3 51 -20 29
-47 -24 -29 -69 23 -62 21 -134 31 -16 2 -38 8 -47 12 -9 4 -22 4 -28 0 -5 -3
-10 0 -10 8 0 10 -7 13 -20 10 -10 -3 -43 1 -72 8 -29 7 -57 14 -63 14 -5 1
-12 3 -15 5 -3 1 -14 4 -25 6 -94 16 -135 31 -107 41 18 7 15 19 -5 20 -10 1
-31 5 -48 8 -16 4 -39 8 -50 9 -11 1 -41 6 -66 10 -25 4 -61 10 -80 12 -19 2
-50 6 -69 9 -19 3 -58 7 -87 9 -28 2 -55 6 -60 9 -5 3 -15 2 -23 -4z"/>
<path d="M7238 5253 c7 -3 16 -2 19 1 4 3 -2 6 -13 5 -11 0 -14 -3 -6 -6z"/>
<path d="M7270 5256 c0 -9 40 -13 46 -5 3 5 -6 9 -20 9 -14 0 -26 -2 -26 -4z"/>
<path d="M7360 5239 c0 -5 5 -7 10 -4 6 3 10 8 10 11 0 2 -4 4 -10 4 -5 0 -10
-5 -10 -11z"/>
<path d="M7390 5240 c0 -5 5 -10 11 -10 5 0 7 5 4 10 -3 6 -8 10 -11 10 -2 0
-4 -4 -4 -10z"/>
<path d="M7480 5220 c8 -5 17 -7 21 -4 4 2 19 0 33 -6 16 -6 27 -6 31 0 4 6 0
10 -7 11 -7 1 -31 3 -52 4 -26 2 -35 0 -26 -5z"/>
<path d="M7610 5199 c0 -7 9 -9 26 -5 17 5 23 3 19 -4 -9 -14 0 -13 13 3 9 10
4 13 -23 15 -21 2 -35 -2 -35 -9z"/>
<path d="M7215 5170 c3 -5 10 -10 16 -10 5 0 9 5 9 10 0 6 -7 10 -16 10 -8 0
-12 -4 -9 -10z"/>
<path d="M6666 5162 c-3 -6 12 -13 36 -17 24 -4 52 -9 63 -12 11 -3 27 -6 35
-8 8 -1 22 -5 31 -9 9 -4 20 -6 25 -5 9 2 105 -6 194 -17 25 -3 42 -3 39 0 -8
8 -41 15 -94 20 -52 6 -118 17 -126 22 -3 2 -32 6 -64 10 -60 6 -74 8 -111 19
-12 4 -25 2 -28 -3z"/>
<path d="M7280 5159 c0 -5 5 -7 10 -4 6 3 10 8 10 11 0 2 -4 4 -10 4 -5 0 -10
-5 -10 -11z"/>
<path d="M7310 5160 c0 -5 5 -10 11 -10 5 0 7 5 4 10 -3 6 -8 10 -11 10 -2 0
-4 -4 -4 -10z"/>
<path d="M7774 5076 c11 -9 28 -16 37 -16 10 0 26 -3 36 -6 13 -5 15 -4 8 4
-6 7 -25 14 -42 15 -16 2 -36 7 -44 11 -8 4 -5 0 5 -8z"/>
<path d="M7888 5063 c-10 -2 -18 -9 -18 -15 0 -6 3 -8 7 -5 3 4 13 1 21 -6 13
-10 14 -9 8 2 -5 8 -3 17 5 22 15 9 6 10 -23 2z"/>
<path d="M3415 4534 c-105 -29 -180 -60 -232 -98 -68 -50 -173 -163 -210 -227
-32 -55 -21 -43 45 46 91 124 188 198 314 240 101 34 171 33 251 -3 82 -38
119 -81 151 -181 27 -83 35 -194 17 -229 -5 -9 -19 -36 -30 -60 -24 -48 -74
-97 -135 -129 -56 -30 -37 -29 23 1 44 23 90 66 117 112 9 14 15 16 23 8 19
-18 10 -475 -11 -544 -9 -30 -14 -57 -12 -59 2 -2 4 1 4 7 0 7 6 12 14 12 10
0 15 -27 18 -117 6 -174 37 -223 142 -223 56 0 90 13 133 50 34 31 33 42 -3
15 -46 -35 -105 -6 -123 60 -7 26 -11 201 -11 497 0 483 -3 526 -49 630 -50
113 -176 187 -331 193 -47 2 -94 2 -105 -1z"/>
<path d="M4950 4504 c-186 -36 -357 -194 -430 -397 -14 -39 -29 -69 -35 -68
-6 0 -11 87 -13 231 l-2 231 -38 -7 c-20 -5 -86 -8 -147 -8 -87 0 -101 -2 -67
-9 31 -6 49 -17 69 -44 l28 -36 3 -617 c3 -681 8 -628 -64 -654 -36 -14 -26
-15 146 -15 173 0 182 1 146 15 -81 29 -76 2 -76 415 0 202 4 370 9 373 4 3
11 28 15 55 17 125 78 247 177 349 64 66 106 92 198 123 75 25 97 24 181 -10
80 -33 111 -61 155 -143 l31 -58 13 88 c23 155 23 154 -29 169 -46 15 -225 25
-270 17z"/>
<path d="M5951 4501 c106 -10 170 -57 205 -151 10 -25 22 -51 28 -59 6 -8 11
-60 11 -120 0 -94 -3 -112 -27 -162 -38 -81 -105 -130 -238 -174 -25 -8 -31
-12 -15 -9 49 8 257 75 295 95 40 20 86 68 115 119 15 27 20 54 20 120 0 79
-3 91 -39 162 -25 51 -50 85 -72 100 -19 13 -34 26 -34 29 0 4 -24 17 -52 29
-42 18 -75 23 -163 26 -97 2 -101 2 -34 -5z"/>
<path d="M7400 4500 c-155 -33 -302 -156 -385 -325 -25 -51 -45 -100 -44 -111
0 -14 2 -15 6 -4 3 8 22 52 43 97 30 62 56 99 112 156 76 77 128 110 191 122
21 4 40 11 43 16 7 12 79 12 102 0 9 -5 38 -17 64 -26 60 -21 133 -100 152
-164 l13 -45 6 57 c4 31 14 82 22 114 8 31 15 63 15 69 0 36 -235 66 -340 44z"/>
<path d="M8300 4504 c-114 -22 -233 -89 -331 -187 l-70 -70 58 -59 c31 -32 60
-58 63 -58 3 0 14 24 24 53 44 125 144 253 231 294 67 31 168 32 226 2 40 -20
98 -75 99 -93 0 -5 7 -17 16 -27 39 -43 57 -249 30 -327 -13 -36 -13 -40 0
-35 20 8 20 -444 0 -532 -8 -33 -13 -62 -10 -64 2 -2 4 1 4 7 0 7 4 12 9 12 4
0 10 -54 13 -121 5 -113 7 -123 34 -161 19 -28 43 -46 70 -56 38 -14 47 -14
96 2 35 11 67 30 89 53 l34 35 -32 -16 c-47 -24 -85 -20 -114 10 l-24 26 -5
506 c-5 453 -8 513 -24 562 -34 101 -118 193 -208 226 -43 16 -226 28 -278 18z"/>
<path d="M5780 4481 c-60 -20 -183 -84 -215 -111 -11 -10 -46 -41 -77 -70
l-57 -51 62 -64 c43 -43 63 -58 66 -47 6 29 79 159 115 206 19 26 50 59 68 74
18 15 35 30 38 34 3 4 26 16 50 27 56 26 25 26 -50 2z"/>
<path d="M6845 4489 c-38 -5 -99 -7 -135 -4 -64 4 -64 4 -25 -8 26 -8 50 -26
72 -56 l33 -43 0 -606 0 -607 -22 -15 c-13 -8 -36 -20 -53 -27 -25 -9 2 -12
150 -12 169 0 178 1 145 15 -74 32 -70 7 -70 404 0 317 6 422 26 493 4 11 1
17 -8 15 -10 -2 -14 43 -16 230 -2 176 -5 232 -15 231 -6 -1 -43 -6 -82 -10z"/>
<path d="M2930 4140 c-6 -11 -8 -20 -6 -20 3 0 10 9 16 20 6 11 8 20 6 20 -3
0 -10 -9 -16 -20z"/>
<path d="M2876 4035 c-9 -26 -7 -32 5 -12 6 10 9 21 6 23 -2 3 -7 -2 -11 -11z"/>
<path d="M2846 3965 c-22 -52 -19 -58 5 -12 11 22 18 41 15 44 -3 3 -12 -12
-20 -32z"/>
<path d="M8575 3933 c-27 -25 -41 -41 -30 -35 19 10 94 82 84 82 -2 -1 -26
-22 -54 -47z"/>
<path d="M2786 3817 c-54 -131 -138 -302 -184 -372 -95 -145 -229 -257 -351
-296 -133 -42 -299 -21 -417 53 l-39 25 5 -51 5 -51 65 -17 c76 -19 226 -23
301 -7 216 46 377 191 517 464 42 82 145 335 139 341 -2 2 -20 -38 -41 -89z"/>
<path d="M8464 3865 c-10 -8 -14 -14 -9 -14 6 0 19 6 29 14 11 8 15 15 10 15
-6 0 -19 -7 -30 -15z"/>
<path d="M3495 3854 l-30 -15 30 6 c17 4 34 11 40 16 13 13 -5 10 -40 -7z"/>
<path d="M8414 3844 c-7 -3 -72 -18 -145 -34 -331 -71 -374 -82 -389 -100 -3
-3 -20 -12 -39 -20 -45 -18 -99 -75 -123 -130 -28 -65 -22 -196 12 -264 35
-69 94 -128 165 -163 70 -36 220 -68 273 -59 123 20 155 29 228 66 59 28 96
56 132 94 51 57 108 144 99 153 -3 3 -16 -15 -28 -39 -33 -64 -64 -102 -122
-146 -207 -159 -480 -108 -587 109 -72 144 -32 299 97 383 57 37 177 79 351
121 51 12 95 25 99 29 7 7 -6 7 -23 0z"/>
<path d="M3438 3833 c7 -3 16 -2 19 1 4 3 -2 6 -13 5 -11 0 -14 -3 -6 -6z"/>
<path d="M3280 3805 c-375 -81 -462 -137 -485 -311 -20 -147 59 -289 198 -354
85 -41 155 -53 272 -48 164 8 302 75 390 191 33 44 65 100 65 114 -1 4 -13
-14 -27 -42 -40 -78 -146 -174 -229 -209 -90 -38 -181 -45 -255 -21 -171 56
-259 173 -259 343 0 151 68 232 245 295 55 19 129 42 165 50 36 8 56 15 45 15
-11 0 -67 -10 -125 -23z"/>
<path d="M5760 3800 c-325 -72 -382 -93 -456 -169 -98 -102 -91 -310 16 -421
141 -146 395 -175 640 -72 96 40 123 57 183 114 22 21 43 36 47 33 4 -2 10
-30 14 -61 9 -79 29 -112 82 -135 25 -10 52 -19 60 -19 28 0 120 48 144 75
l25 29 -30 -21 c-16 -11 -38 -23 -48 -26 -25 -9 -73 18 -81 45 -3 13 -6 119
-6 236 0 116 -4 212 -8 212 -5 0 -23 -38 -41 -85 -18 -46 -40 -90 -47 -96 -8
-6 -14 -16 -14 -21 0 -14 -74 -110 -116 -149 -158 -146 -353 -196 -519 -132
-73 29 -148 92 -178 149 -36 69 -43 209 -16 283 30 77 132 150 263 187 50 15
98 29 106 32 8 3 35 11 60 18 72 19 13 14 -80 -6z"/>
<path d="M4188 3103 c7 -3 16 -2 19 1 4 3 -2 6 -13 5 -11 0 -14 -3 -6 -6z"/>
<path d="M4598 3103 c7 -3 16 -2 19 1 4 3 -2 6 -13 5 -11 0 -14 -3 -6 -6z"/>
<path d="M6658 3103 c7 -3 16 -2 19 1 4 3 -2 6 -13 5 -11 0 -14 -3 -6 -6z"/>
<path d="M7058 3103 c7 -3 16 -2 19 1 4 3 -2 6 -13 5 -11 0 -14 -3 -6 -6z"/>
</g>
</svg>
